<?xml version="1.0" encoding="UTF-8"?>
<svg xmlns="http://www.w3.org/2000/svg" xmlns:xlink="http://www.w3.org/1999/xlink" width="48px" height="48px" viewBox="0 0 48 48" version="1.1">
<g id="surface1">
<path style=" stroke:none;fill-rule:nonzero;fill:rgb(13.333333%,11.764706%,12.156863%);fill-opacity:1;" d="M 27.515625 1.5 L 44.4375 1.5 L 45.09375 1.640625 L 45.515625 1.875 L 45.984375 2.296875 L 46.3125 2.8125 L 46.453125 3.234375 L 46.5 3.65625 L 46.5 21.5625 L 46.453125 22.21875 L 46.265625 22.78125 L 45.84375 23.34375 L 45.421875 23.671875 L 45.046875 23.859375 L 44.671875 23.953125 L 44.0625 24 L 36 24 L 36 26.34375 L 36.46875 26.25 L 36.9375 26.25 L 37.453125 26.34375 L 38.015625 26.625 L 38.578125 27.140625 L 38.953125 27.84375 L 39.421875 27.75 L 39.9375 27.75 L 40.453125 27.84375 L 41.015625 28.125 L 41.578125 28.640625 L 41.953125 29.34375 L 42.46875 29.25 L 42.9375 29.25 L 43.453125 29.34375 L 44.015625 29.625 L 44.53125 30.09375 L 44.859375 30.65625 L 45 31.3125 L 45 41.203125 L 44.90625 41.625 L 43.59375 43.59375 L 43.546875 43.734375 L 43.5 45.703125 L 43.40625 46.125 L 43.078125 46.453125 L 42.328125 46.5 L 32.15625 46.5 L 31.875 46.40625 L 31.640625 46.171875 L 31.5 45.890625 L 31.40625 43.875 L 31.03125 43.359375 L 30.5625 42.84375 L 30.1875 42.375 L 29.578125 41.671875 L 29.25 41.15625 L 28.59375 39.28125 L 27.796875 36.9375 L 27.09375 34.921875 L 26.15625 32.203125 L 26.0625 31.78125 L 26.0625 31.453125 L 26.25 30.890625 L 26.625 30.46875 L 27.28125 30.140625 L 28.078125 29.953125 L 28.828125 29.953125 L 29.4375 30.140625 L 29.953125 30.46875 L 30.328125 30.890625 L 31.125 32.53125 L 31.40625 33.1875 L 31.40625 33.28125 L 31.5 33.28125 L 31.5 24 L 27.703125 24 L 27.09375 23.90625 L 26.671875 23.71875 L 26.25 23.4375 L 25.875 23.015625 L 25.59375 22.453125 L 25.5 21.984375 L 25.5 3.421875 L 25.640625 2.90625 L 25.921875 2.390625 L 26.34375 1.96875 L 26.90625 1.640625 Z M 27.515625 1.5 "/>
<path style=" stroke:none;fill-rule:nonzero;fill:rgb(32.156863%,62.745098%,99.215686%);fill-opacity:1;" d="M 3.515625 1.5 L 20.4375 1.5 L 21.09375 1.640625 L 21.515625 1.875 L 21.984375 2.296875 L 22.3125 2.8125 L 22.453125 3.234375 L 22.5 3.65625 L 22.5 21.65625 L 22.40625 22.40625 L 22.078125 23.0625 L 21.703125 23.484375 L 21.28125 23.765625 L 20.71875 23.953125 L 20.15625 24 L 3.703125 24 L 3.09375 23.90625 L 2.625 23.71875 L 2.203125 23.390625 L 1.875 23.015625 L 1.59375 22.453125 L 1.5 21.984375 L 1.5 3.421875 L 1.640625 2.90625 L 1.921875 2.390625 L 2.34375 1.96875 L 2.90625 1.640625 Z M 3.515625 1.5 "/>
<path style=" stroke:none;fill-rule:nonzero;fill:rgb(32.156863%,62.745098%,99.215686%);fill-opacity:1;" d="M 3.46875 25.5 L 20.390625 25.5 L 21 25.59375 L 21.515625 25.875 L 21.984375 26.296875 L 22.3125 26.8125 L 22.453125 27.234375 L 22.5 27.703125 L 22.5 44.0625 L 22.453125 44.71875 L 22.265625 45.28125 L 21.84375 45.84375 L 21.421875 46.171875 L 21 46.359375 L 20.671875 46.453125 L 19.96875 46.5 L 3.703125 46.5 L 3.09375 46.40625 L 2.671875 46.21875 L 2.25 45.9375 L 1.875 45.515625 L 1.59375 44.953125 L 1.5 44.484375 L 1.5 27.421875 L 1.640625 26.90625 L 1.921875 26.390625 L 2.34375 25.96875 L 2.8125 25.6875 L 3.1875 25.546875 Z M 3.46875 25.5 "/>
<path style=" stroke:none;fill-rule:nonzero;fill:rgb(59.215686%,77.254902%,99.215686%);fill-opacity:1;" d="M 27.515625 3 L 44.4375 3 L 44.765625 3.1875 L 44.953125 3.46875 L 45 3.65625 L 45 21.796875 L 44.90625 22.125 L 44.578125 22.453125 L 44.4375 22.5 L 36 22.5 L 35.953125 21.375 L 35.71875 20.71875 L 35.34375 20.203125 L 34.96875 19.875 L 34.453125 19.640625 L 34.03125 19.546875 L 33.46875 19.546875 L 32.8125 19.734375 L 32.296875 20.0625 L 31.921875 20.484375 L 31.6875 20.953125 L 31.546875 21.515625 L 31.5 22.453125 L 31.453125 22.5 L 27.65625 22.5 L 27.328125 22.359375 L 27.09375 22.125 L 27 21.890625 L 27 3.609375 L 27.140625 3.28125 Z M 27.515625 3 "/>
<path style=" stroke:none;fill-rule:nonzero;fill:rgb(99.607843%,73.333333%,65.490196%);fill-opacity:1;" d="M 33.515625 21 L 33.984375 21 L 34.265625 21.1875 L 34.453125 21.421875 L 34.5 21.515625 L 34.546875 33.890625 L 34.6875 34.21875 L 34.96875 34.40625 L 35.484375 34.40625 L 35.71875 34.265625 L 35.90625 33.984375 L 35.953125 33.609375 L 36 28.265625 L 36.28125 27.890625 L 36.46875 27.75 L 36.75 27.703125 L 37.171875 27.84375 L 37.453125 28.171875 L 37.5 28.265625 L 37.546875 33.890625 L 37.6875 34.21875 L 37.96875 34.40625 L 38.484375 34.40625 L 38.71875 34.265625 L 38.90625 33.984375 L 38.953125 33.703125 L 39 29.765625 L 39.28125 29.390625 L 39.46875 29.25 L 39.75 29.203125 L 40.171875 29.34375 L 40.453125 29.671875 L 40.5 29.765625 L 40.546875 33.890625 L 40.6875 34.21875 L 40.96875 34.40625 L 41.484375 34.40625 L 41.71875 34.265625 L 41.90625 33.984375 L 41.953125 33.75 L 42 31.265625 L 42.28125 30.890625 L 42.46875 30.75 L 42.75 30.703125 L 43.171875 30.84375 L 43.453125 31.171875 L 43.5 31.265625 L 43.5 41.0625 L 42.46875 42.609375 L 42.09375 43.21875 L 42.046875 43.40625 L 42 45 L 33 45 L 32.953125 44.953125 L 32.90625 43.453125 L 32.71875 43.078125 L 32.34375 42.609375 L 31.734375 41.90625 L 31.171875 41.25 L 30.65625 40.59375 L 30.328125 39.75 L 29.625 37.734375 L 29.15625 36.375 L 28.640625 34.828125 L 27.9375 32.8125 L 27.5625 31.734375 L 27.5625 31.640625 L 28.21875 31.453125 L 28.734375 31.453125 L 29.015625 31.640625 L 29.296875 32.15625 L 29.859375 33.328125 L 30.28125 34.265625 L 30.609375 34.921875 L 31.21875 36.234375 L 31.59375 37.03125 L 31.875 37.359375 L 32.015625 37.40625 L 32.4375 37.40625 L 32.71875 37.265625 L 32.90625 36.890625 L 32.953125 36.703125 L 32.953125 31.921875 L 33 21.5625 L 33.1875 21.28125 Z M 33.515625 21 "/>
<path style=" stroke:none;fill-rule:nonzero;fill:rgb(12.941176%,11.372549%,11.764706%);fill-opacity:1;" d="M 5.015625 30.75 L 18.9375 30.75 L 19.21875 30.890625 L 19.40625 31.125 L 19.5 31.359375 L 19.5 40.59375 L 19.359375 40.921875 L 19.125 41.15625 L 18.84375 41.25 L 5.109375 41.25 L 4.78125 41.109375 L 4.546875 40.875 L 4.5 40.734375 L 4.5 31.3125 L 4.640625 31.03125 L 4.921875 30.796875 Z M 5.015625 30.75 "/>
<path style=" stroke:none;fill-rule:nonzero;fill:rgb(12.941176%,11.372549%,11.764706%);fill-opacity:1;" d="M 7.6875 3.890625 L 8.109375 3.984375 L 8.484375 4.265625 L 12.09375 7.875 L 12.28125 8.34375 L 12.140625 8.765625 L 11.8125 9.1875 L 11.484375 9.46875 L 11.25 9.75 L 10.921875 10.03125 L 10.6875 10.265625 L 10.453125 10.546875 L 10.359375 10.546875 L 9.9375 11.390625 L 9.84375 11.71875 L 9.84375 12.515625 L 10.078125 13.125 L 10.40625 13.640625 L 10.875 14.0625 L 11.53125 14.390625 L 12.09375 14.484375 L 12.65625 14.4375 L 13.125 14.296875 L 13.59375 14.015625 L 14.296875 13.359375 L 14.8125 12.84375 L 15.140625 12.46875 L 15.609375 12.09375 L 16.03125 12.046875 L 16.359375 12.1875 L 16.734375 12.515625 L 20.203125 15.984375 L 20.390625 16.3125 L 20.390625 16.734375 L 20.015625 17.25 L 19.734375 17.484375 L 19.453125 17.8125 L 19.359375 17.8125 L 19.265625 18 L 19.078125 18.1875 L 18.984375 18.1875 L 18.890625 18.375 L 18.515625 18.703125 L 18 19.171875 L 17.53125 19.5 L 16.875 19.875 L 16.265625 20.15625 L 15.375 20.4375 L 14.625 20.578125 L 14.203125 20.625 L 13.453125 20.625 L 12.703125 20.53125 L 11.71875 20.296875 L 11.109375 20.0625 L 10.359375 19.6875 L 9.703125 19.21875 L 9.1875 18.796875 L 5.4375 15.046875 L 4.921875 14.390625 L 4.5 13.734375 L 4.125 12.9375 L 3.84375 12 L 3.703125 11.25 L 3.703125 9.703125 L 3.890625 8.71875 L 4.21875 7.828125 L 4.59375 7.078125 L 4.96875 6.515625 L 5.390625 6 L 5.671875 5.671875 L 5.765625 5.671875 L 5.859375 5.484375 L 7.125 4.21875 L 7.546875 3.9375 Z M 7.6875 3.890625 "/>
<path style=" stroke:none;fill-rule:nonzero;fill:rgb(13.333333%,11.764706%,12.156863%);fill-opacity:1;" d="M 3.515625 1.5 L 20.4375 1.5 L 21.09375 1.640625 L 21.515625 1.875 L 21.984375 2.296875 L 22.3125 2.8125 L 22.453125 3.234375 L 22.5 3.65625 L 22.5 21.65625 L 22.40625 22.40625 L 22.078125 23.0625 L 21.703125 23.484375 L 21.28125 23.765625 L 20.71875 23.953125 L 20.15625 24 L 3.703125 24 L 3.09375 23.90625 L 2.625 23.71875 L 2.203125 23.390625 L 1.875 23.015625 L 1.59375 22.453125 L 1.5 21.984375 L 1.5 3.421875 L 1.640625 2.90625 L 1.921875 2.390625 L 2.34375 1.96875 L 2.90625 1.640625 Z M 3.5625 3 L 3.234375 3.1875 L 3.046875 3.46875 L 3 3.65625 L 3 21.9375 L 3.1875 22.265625 L 3.5625 22.5 L 20.4375 22.5 L 20.765625 22.3125 L 20.953125 22.03125 L 21 21.890625 L 21 3.84375 L 20.90625 3.375 L 20.578125 3.046875 L 20.4375 3 Z M 3.5625 3 "/>
<path style=" stroke:none;fill-rule:nonzero;fill:rgb(13.333333%,11.372549%,12.156863%);fill-opacity:1;" d="M 3.46875 25.5 L 20.390625 25.5 L 21 25.59375 L 21.515625 25.875 L 21.984375 26.296875 L 22.3125 26.8125 L 22.453125 27.234375 L 22.5 27.703125 L 22.5 44.0625 L 22.453125 44.71875 L 22.265625 45.28125 L 21.84375 45.84375 L 21.421875 46.171875 L 21 46.359375 L 20.671875 46.453125 L 19.96875 46.5 L 3.703125 46.5 L 3.09375 46.40625 L 2.671875 46.21875 L 2.25 45.9375 L 1.875 45.515625 L 1.59375 44.953125 L 1.5 44.484375 L 1.5 27.421875 L 1.640625 26.90625 L 1.921875 26.390625 L 2.34375 25.96875 L 2.8125 25.6875 L 3.1875 25.546875 Z M 3.515625 27 L 3.140625 27.28125 L 3 27.609375 L 3 44.4375 L 3.1875 44.765625 L 3.46875 44.953125 L 3.609375 45 L 20.4375 45 L 20.671875 44.859375 L 20.953125 44.53125 L 21 44.34375 L 21 27.796875 L 20.90625 27.375 L 20.671875 27.09375 L 20.484375 27 Z M 3.515625 27 "/>
<path style=" stroke:none;fill-rule:nonzero;fill:rgb(12.941176%,11.372549%,11.764706%);fill-opacity:1;" d="M 35.390625 6 L 36.5625 6 L 37.40625 6.140625 L 38.15625 6.375 L 38.953125 6.75 L 39.65625 7.21875 L 40.3125 7.78125 L 40.828125 8.390625 L 41.15625 8.90625 L 41.53125 9.65625 L 41.8125 10.40625 L 41.953125 11.109375 L 42 11.484375 L 42 13.03125 L 41.859375 13.59375 L 41.625 14.015625 L 41.203125 14.484375 L 40.78125 14.765625 L 40.3125 14.953125 L 40.078125 15 L 39.375 15 L 38.8125 14.8125 L 38.296875 14.484375 L 38.109375 14.296875 L 37.875 14.34375 L 37.359375 14.671875 L 36.9375 14.859375 L 36.28125 15 L 35.625 15 L 34.875 14.8125 L 34.359375 14.53125 L 33.984375 14.25 L 33.609375 13.875 L 33.28125 13.359375 L 33.046875 12.796875 L 32.953125 12.375 L 32.953125 11.625 L 33.09375 10.96875 L 33.46875 10.21875 L 33.984375 9.65625 L 34.640625 9.234375 L 35.34375 9 L 35.625 8.953125 L 36.28125 8.953125 L 36.9375 9.09375 L 37.6875 9.46875 L 38.15625 9.84375 L 38.53125 10.3125 L 38.859375 11.015625 L 39 11.671875 L 39.046875 12.890625 L 39.1875 13.21875 L 39.46875 13.40625 L 39.890625 13.453125 L 40.21875 13.3125 L 40.40625 13.078125 L 40.453125 12.890625 L 40.453125 11.71875 L 40.359375 11.0625 L 40.171875 10.40625 L 39.796875 9.65625 L 39.375 9.046875 L 38.90625 8.578125 L 38.4375 8.25 L 37.734375 7.875 L 36.984375 7.640625 L 36.328125 7.546875 L 35.71875 7.546875 L 35.015625 7.640625 L 34.265625 7.875 L 33.5625 8.25 L 32.953125 8.71875 L 32.625 9.046875 L 32.25 9.5625 L 31.875 10.265625 L 31.640625 11.015625 L 31.546875 11.578125 L 31.546875 12.328125 L 31.640625 12.984375 L 31.921875 13.828125 L 32.25 14.4375 L 32.625 14.90625 L 33 15.328125 L 33.703125 15.84375 L 34.40625 16.171875 L 35.0625 16.359375 L 35.671875 16.453125 L 39.234375 16.5 L 39.515625 16.6875 L 39.703125 16.96875 L 39.75 17.109375 L 39.75 17.4375 L 39.515625 17.8125 L 39.328125 17.953125 L 39.140625 18 L 35.53125 18 L 34.640625 17.859375 L 33.84375 17.625 L 33.046875 17.25 L 32.484375 16.875 L 31.96875 16.453125 L 31.3125 15.796875 L 30.75 14.953125 L 30.375 14.15625 L 30.140625 13.40625 L 30 12.609375 L 30 11.484375 L 30.140625 10.546875 L 30.421875 9.703125 L 30.796875 8.953125 L 31.171875 8.390625 L 31.6875 7.78125 L 32.203125 7.3125 L 33.046875 6.75 L 33.9375 6.328125 L 34.828125 6.09375 Z M 35.390625 6 "/>
<path style=" stroke:none;fill-rule:nonzero;fill:rgb(32.156863%,62.745098%,99.215686%);fill-opacity:1;" d="M 44.953125 10.078125 L 45 10.078125 L 45 21.796875 L 44.90625 22.125 L 44.578125 22.453125 L 44.4375 22.5 L 36 22.5 L 35.953125 21.28125 L 36.328125 21.046875 L 37.359375 20.4375 L 38.296875 19.78125 L 38.859375 19.359375 L 39.375 18.9375 L 39.9375 18.421875 L 40.40625 18 L 40.875 17.53125 L 41.203125 17.15625 L 41.859375 16.359375 L 42.46875 15.5625 L 42.984375 14.765625 L 43.546875 13.828125 L 44.109375 12.75 L 44.578125 11.625 L 44.859375 10.921875 Z M 44.953125 10.078125 "/>
<path style=" stroke:none;fill-rule:nonzero;fill:rgb(100%,80%,3.921569%);fill-opacity:1;" d="M 6.234375 7.359375 L 6.421875 7.453125 L 6.84375 7.921875 L 8.90625 9.984375 L 8.53125 10.875 L 8.34375 11.71875 L 8.34375 12.421875 L 8.484375 13.171875 L 8.8125 13.921875 L 9.1875 14.484375 L 9.84375 15.140625 L 10.453125 15.515625 L 11.0625 15.796875 L 11.765625 15.9375 L 12.75 15.9375 L 13.453125 15.75 L 14.0625 15.515625 L 14.25 15.375 L 14.390625 15.375 L 14.71875 15.796875 L 16.921875 18 L 16.828125 18.1875 L 16.078125 18.609375 L 15.375 18.890625 L 14.671875 19.078125 L 14.34375 19.125 L 13.3125 19.125 L 12.375 18.9375 L 11.484375 18.609375 L 10.96875 18.328125 L 10.453125 17.953125 L 9.75 17.296875 L 6.609375 14.15625 L 6.1875 13.640625 L 5.8125 13.03125 L 5.53125 12.46875 L 5.296875 11.671875 L 5.203125 11.15625 L 5.15625 10.40625 L 5.25 9.5625 L 5.4375 8.8125 L 5.765625 8.015625 L 6.140625 7.453125 Z M 6.234375 7.359375 "/>
<path style=" stroke:none;fill-rule:nonzero;fill:rgb(11.372549%,52.156863%,100%);fill-opacity:1;" d="M 20.8125 33.515625 L 20.953125 33.515625 L 21 33.75 L 21 44.34375 L 20.859375 44.671875 L 20.578125 44.953125 L 20.4375 45 L 8.34375 45 L 8.34375 44.953125 L 9.5625 44.90625 L 9.65625 44.859375 L 9.75 44.671875 L 10.5 44.4375 L 11.484375 44.015625 L 12.515625 43.453125 L 13.3125 42.984375 L 14.4375 42.234375 L 15.140625 41.71875 L 15.65625 41.296875 L 15.796875 41.25 L 18.84375 41.203125 L 19.21875 41.0625 L 19.40625 40.78125 L 19.453125 40.59375 L 19.5 36 L 19.6875 35.90625 L 20.015625 35.4375 L 20.390625 34.6875 L 20.71875 33.75 Z M 20.8125 33.515625 "/>
<path style=" stroke:none;fill-rule:nonzero;fill:rgb(11.372549%,52.156863%,99.607843%);fill-opacity:1;" d="M 20.953125 10.453125 L 21 10.453125 L 21 21.890625 L 20.859375 22.171875 L 20.625 22.40625 L 20.4375 22.5 L 7.921875 22.5 L 7.921875 22.453125 L 9.609375 22.40625 L 9.703125 22.359375 L 9.75 22.21875 L 10.78125 21.796875 L 11.8125 21.328125 L 12.796875 20.765625 L 12.890625 20.765625 L 12.9375 20.625 L 13.078125 20.578125 L 14.203125 20.578125 L 15.140625 20.4375 L 16.125 20.15625 L 16.6875 19.921875 L 17.390625 19.546875 L 18.046875 19.078125 L 18.609375 18.5625 L 18.9375 18.28125 L 19.171875 18 L 19.453125 17.765625 L 19.734375 17.4375 L 20.015625 17.203125 L 20.34375 16.734375 L 20.34375 16.3125 L 20.0625 15.890625 L 18.984375 14.8125 L 19.078125 14.765625 L 19.171875 14.484375 L 19.453125 14.0625 L 20.4375 12.09375 L 20.71875 11.296875 L 20.90625 11.015625 Z M 20.953125 10.453125 "/>
<path style=" stroke:none;fill-rule:nonzero;fill:rgb(99.607843%,67.843137%,25.098039%);fill-opacity:1;" d="M 7.265625 32.25 L 16.734375 32.25 L 16.6875 32.390625 L 16.171875 32.8125 L 15.515625 33.421875 L 15.140625 33.75 L 14.484375 34.3125 L 13.828125 34.921875 L 13.3125 35.34375 L 12.65625 35.953125 L 12.140625 36.375 L 11.953125 36.46875 L 11.484375 36.046875 L 11.109375 35.71875 L 10.453125 35.15625 L 9.796875 34.546875 L 9.28125 34.125 L 8.53125 33.421875 L 8.15625 33.09375 L 7.5 32.53125 L 7.265625 32.34375 Z M 7.265625 32.25 "/>
<path style=" stroke:none;fill-rule:nonzero;fill:rgb(100%,67.45098%,24.313725%);fill-opacity:1;" d="M 10.265625 37.03125 L 10.453125 37.078125 L 10.96875 37.546875 L 11.390625 37.828125 L 11.765625 37.96875 L 12.1875 37.96875 L 12.703125 37.78125 L 13.3125 37.3125 L 13.640625 37.03125 L 13.875 37.125 L 14.203125 37.453125 L 14.578125 37.78125 L 15.046875 38.203125 L 15.421875 38.53125 L 15.890625 38.953125 L 16.265625 39.28125 L 16.734375 39.65625 L 16.6875 39.75 L 7.3125 39.75 L 7.359375 39.5625 L 7.96875 39.046875 L 8.484375 38.578125 L 9 38.15625 L 9.328125 37.828125 L 9.84375 37.40625 Z M 10.265625 37.03125 "/>
<path style=" stroke:none;fill-rule:nonzero;fill:rgb(100%,60.784314%,9.019608%);fill-opacity:1;" d="M 17.90625 33.1875 L 18 33.1875 L 18.046875 33.75 L 18.046875 35.953125 L 18 38.765625 L 17.765625 38.671875 L 17.25 38.203125 L 16.875 37.875 L 16.40625 37.453125 L 16.03125 37.125 L 15.5625 36.703125 L 14.8125 36.046875 L 14.90625 35.859375 L 15.515625 35.34375 L 16.125 34.78125 L 16.5 34.453125 L 16.96875 34.03125 L 17.484375 33.5625 L 17.859375 33.234375 Z M 17.90625 33.1875 "/>
<path style=" stroke:none;fill-rule:nonzero;fill:rgb(100%,60.784314%,9.019608%);fill-opacity:1;" d="M 6 33.1875 L 6.1875 33.28125 L 6.5625 33.65625 L 7.078125 34.078125 L 7.6875 34.640625 L 7.78125 34.6875 L 7.78125 34.78125 L 7.96875 34.875 L 8.578125 35.4375 L 9.09375 35.859375 L 9.1875 36 L 8.953125 36.234375 L 8.25 36.890625 L 7.875 37.21875 L 7.171875 37.828125 L 6.5625 38.390625 L 6.1875 38.71875 L 6 38.8125 Z M 6 33.1875 "/>
<path style=" stroke:none;fill-rule:nonzero;fill:rgb(100%,71.372549%,43.921569%);fill-opacity:1;" d="M 16.21875 32.625 L 16.21875 32.765625 L 15.515625 33.421875 L 15.140625 33.75 L 14.484375 34.3125 L 13.828125 34.921875 L 13.3125 35.34375 L 12.65625 35.953125 L 12.140625 36.375 L 11.953125 36.46875 L 11.484375 36.046875 L 11.109375 35.71875 L 10.453125 35.15625 L 9.796875 34.546875 L 9.28125 34.125 L 8.53125 33.421875 L 8.15625 33.09375 L 8.0625 32.90625 L 8.203125 32.859375 L 8.203125 32.953125 L 8.484375 33 L 8.71875 33.046875 L 8.953125 33 L 9.046875 32.90625 L 11.0625 32.90625 L 12.28125 33.09375 L 12.46875 33.1875 L 12.65625 33.515625 L 12.703125 33.84375 L 12.75 33.984375 L 12.703125 34.125 L 12.515625 34.171875 L 12.46875 34.453125 L 12.234375 34.640625 L 12.140625 34.640625 L 12.046875 34.875 L 11.90625 35.296875 L 11.859375 35.390625 L 11.4375 35.484375 L 11.53125 35.8125 L 11.578125 35.953125 L 11.765625 36.046875 L 12 36.09375 L 12.28125 36.1875 L 12.328125 36.046875 L 12.421875 36.046875 L 12.421875 35.859375 L 12.5625 35.8125 L 12.703125 35.625 L 13.125 35.15625 L 13.3125 35.0625 L 13.40625 34.875 L 13.828125 34.5 L 14.015625 34.453125 L 14.015625 34.359375 L 14.34375 34.125 L 14.4375 34.125 L 14.53125 33.9375 L 15.1875 33.28125 L 15.421875 33.1875 L 15.65625 33.1875 L 15.703125 33.046875 L 15.890625 32.859375 L 16.125 32.71875 Z M 16.21875 32.625 "/>
<path style=" stroke:none;fill-rule:nonzero;fill:rgb(58.431373%,76.862745%,99.215686%);fill-opacity:1;" d="M 35.765625 10.5 L 36.234375 10.5 L 36.703125 10.640625 L 37.125 10.96875 L 37.40625 11.4375 L 37.5 11.765625 L 37.5 12.1875 L 37.359375 12.65625 L 37.078125 13.078125 L 36.65625 13.359375 L 36.421875 13.453125 L 36.140625 13.5 L 35.765625 13.5 L 35.25 13.3125 L 34.875 13.03125 L 34.59375 12.5625 L 34.5 12.1875 L 34.5 11.765625 L 34.6875 11.25 L 34.96875 10.875 L 35.4375 10.59375 Z M 35.765625 10.5 "/>
<path style=" stroke:none;fill-rule:nonzero;fill:rgb(100%,67.058824%,24.313725%);fill-opacity:1;" d="M 7.734375 5.765625 L 7.921875 5.8125 L 10.40625 8.296875 L 10.359375 8.484375 L 10.03125 8.859375 L 9.796875 8.8125 L 9.46875 8.484375 L 9.375 8.4375 L 9.375 8.34375 L 9.1875 8.25 L 9.1875 8.15625 L 9 8.0625 L 9 7.96875 L 8.8125 7.875 L 8.8125 7.78125 L 8.625 7.6875 L 8.296875 7.3125 L 7.96875 6.984375 L 7.875 6.9375 L 7.875 6.84375 L 7.6875 6.75 L 7.6875 6.65625 L 7.5 6.5625 L 7.3125 6.375 L 7.359375 6.140625 Z M 7.734375 5.765625 "/>
<path style=" stroke:none;fill-rule:nonzero;fill:rgb(100%,66.666667%,23.137255%);fill-opacity:1;" d="M 15.890625 13.875 L 16.125 14.015625 L 18.5625 16.453125 L 18.515625 16.640625 L 18.1875 17.015625 L 17.953125 16.96875 L 15.703125 14.71875 L 15.421875 14.484375 L 15.421875 14.296875 L 15.796875 13.96875 Z M 15.890625 13.875 "/>
<path style=" stroke:none;fill-rule:nonzero;fill:rgb(100%,70.588235%,41.568627%);fill-opacity:1;" d="M 16.21875 32.625 L 16.21875 32.765625 L 15.515625 33.421875 L 15.140625 33.75 L 14.484375 34.3125 L 13.828125 34.921875 L 13.3125 35.34375 L 12.65625 35.953125 L 12.140625 36.375 L 11.953125 36.46875 L 11.671875 36.234375 L 11.671875 36.09375 L 12.09375 36.09375 L 12.28125 36.1875 L 12.328125 36.046875 L 12.421875 36.046875 L 12.421875 35.859375 L 12.5625 35.8125 L 12.703125 35.625 L 13.125 35.15625 L 13.3125 35.0625 L 13.40625 34.875 L 13.828125 34.5 L 14.015625 34.453125 L 14.015625 34.359375 L 14.34375 34.125 L 14.4375 34.125 L 14.53125 33.9375 L 15.1875 33.28125 L 15.421875 33.1875 L 15.65625 33.1875 L 15.703125 33.046875 L 15.890625 32.859375 L 16.125 32.71875 Z M 16.21875 32.625 "/>
<path style=" stroke:none;fill-rule:nonzero;fill:rgb(9.411765%,7.058824%,10.588235%);fill-opacity:1;" d="M 33.234375 45.046875 L 41.8125 45.046875 L 41.8125 45.09375 L 41.203125 45.1875 L 40.3125 45.234375 L 39.28125 45.234375 L 35.953125 45.1875 L 33.84375 45.1875 L 33.234375 45.09375 Z M 33.234375 45.046875 "/>
<path style=" stroke:none;fill-rule:nonzero;fill:rgb(9.411765%,7.058824%,10.588235%);fill-opacity:1;" d="M 35.859375 29.25 L 35.953125 29.34375 L 35.953125 33.984375 L 35.765625 34.265625 L 35.625 34.40625 L 35.484375 34.453125 L 34.96875 34.453125 L 34.734375 34.3125 L 34.734375 34.21875 L 34.96875 34.265625 L 35.0625 34.171875 L 35.4375 34.03125 L 35.578125 34.03125 L 35.71875 33.28125 L 35.765625 32.25 L 35.765625 31.78125 L 35.8125 31.125 L 35.8125 29.4375 Z M 35.859375 29.25 "/>
<path style=" stroke:none;fill-rule:nonzero;fill:rgb(100%,71.764706%,45.098039%);fill-opacity:1;" d="M 9.421875 32.34375 L 12.5625 32.390625 L 12.5625 32.4375 L 11.859375 32.53125 L 11.859375 32.578125 L 10.078125 32.71875 L 9.65625 32.71875 L 9.28125 32.625 L 8.625 32.578125 L 8.578125 32.4375 L 8.625 32.390625 Z M 9.421875 32.34375 "/>
<path style=" stroke:none;fill-rule:nonzero;fill:rgb(9.803922%,7.45098%,10.588235%);fill-opacity:1;" d="M 16.6875 32.34375 L 16.78125 32.34375 L 16.6875 32.53125 L 16.40625 32.8125 L 16.3125 32.8125 L 16.265625 32.953125 L 16.171875 32.953125 L 16.125 33.09375 L 16.03125 33.09375 L 15.9375 33.28125 L 15.75 33.28125 L 15.515625 33.515625 L 15.5625 33.609375 L 15.375 33.703125 L 14.4375 34.640625 L 14.34375 34.640625 L 14.296875 34.78125 L 14.0625 34.96875 L 13.921875 35.015625 L 13.921875 35.109375 L 13.6875 35.25 L 13.546875 35.296875 L 13.546875 35.390625 L 13.21875 35.53125 L 12.890625 35.8125 L 12.890625 35.671875 L 13.359375 35.25 L 13.875 34.828125 L 14.625 34.125 L 15.140625 33.703125 L 15.84375 33.046875 L 16.359375 32.625 Z M 16.6875 32.34375 "/>
<path style=" stroke:none;fill-rule:nonzero;fill:rgb(9.803922%,7.45098%,10.588235%);fill-opacity:1;" d="M 38.859375 31.828125 L 38.90625 31.828125 L 38.953125 32.90625 L 38.953125 33.984375 L 38.765625 34.265625 L 38.625 34.40625 L 38.484375 34.453125 L 37.96875 34.453125 L 37.6875 34.265625 L 37.6875 34.171875 L 38.15625 34.125 L 38.4375 33.984375 L 38.578125 33.9375 L 38.671875 33.515625 L 38.71875 32.8125 L 38.8125 32.203125 L 38.8125 31.921875 Z M 38.859375 31.828125 "/>
<path style=" stroke:none;fill-rule:nonzero;fill:rgb(9.411765%,7.45098%,10.588235%);fill-opacity:1;" d="M 41.859375 31.875 L 41.90625 31.875 L 41.953125 32.859375 L 41.953125 33.984375 L 41.765625 34.265625 L 41.625 34.40625 L 41.484375 34.453125 L 40.96875 34.453125 L 40.734375 34.3125 L 40.734375 34.21875 L 41.0625 34.171875 L 41.4375 33.984375 L 41.578125 33.890625 L 41.671875 33.515625 L 41.71875 32.90625 L 41.765625 32.71875 L 41.765625 32.015625 Z M 41.859375 31.875 "/>
<path style=" stroke:none;fill-rule:nonzero;fill:rgb(9.411765%,7.058824%,10.588235%);fill-opacity:1;" d="M 32.859375 26.390625 L 32.953125 26.484375 L 32.953125 31.546875 L 32.90625 31.921875 L 32.8125 31.734375 L 32.8125 31.125 L 32.765625 30.796875 L 32.8125 30.5625 L 32.765625 30.375 L 32.8125 29.625 L 32.8125 27.09375 Z M 32.859375 26.390625 "/>
<path style=" stroke:none;fill-rule:nonzero;fill:rgb(9.803922%,7.843137%,10.588235%);fill-opacity:1;" d="M 16.6875 32.34375 L 16.78125 32.34375 L 16.6875 32.53125 L 16.40625 32.8125 L 16.3125 32.8125 L 16.265625 32.953125 L 16.171875 32.953125 L 16.125 33.09375 L 16.03125 33.09375 L 15.9375 33.28125 L 15.75 33.28125 L 15.515625 33.515625 L 15.5625 33.609375 L 15.28125 33.65625 L 15.234375 33.75 L 15.234375 33.609375 L 15.84375 33.046875 L 16.359375 32.625 Z M 16.6875 32.34375 "/>
<path style=" stroke:none;fill-rule:nonzero;fill:rgb(100%,60.784314%,9.019608%);fill-opacity:1;" d="M 7.96875 6.9375 L 8.15625 7.03125 L 9.890625 8.765625 L 9.984375 8.765625 L 10.171875 8.53125 L 10.265625 8.578125 L 10.03125 8.859375 L 9.796875 8.8125 L 9.46875 8.484375 L 9.375 8.4375 L 9.375 8.34375 L 9.1875 8.25 L 9.1875 8.15625 L 9 8.0625 L 9 7.96875 L 8.8125 7.875 L 8.8125 7.78125 L 8.625 7.6875 L 8.296875 7.3125 L 7.96875 6.984375 Z M 7.96875 6.9375 "/>
<path style=" stroke:none;fill-rule:nonzero;fill:rgb(10.588235%,8.627451%,10.980392%);fill-opacity:1;" d="M 29.484375 37.5 L 29.625 37.546875 L 30.140625 39.09375 L 30.140625 39.234375 L 30.046875 39.234375 L 29.625 38.109375 Z M 29.484375 37.5 "/>
<path style=" stroke:none;fill-rule:nonzero;fill:rgb(10.588235%,8.627451%,10.980392%);fill-opacity:1;" d="M 8.484375 36.609375 L 8.578125 36.65625 L 8.25 36.984375 L 8.015625 37.265625 L 7.78125 37.359375 L 7.734375 37.5 L 7.59375 37.5 L 7.59375 37.59375 L 7.265625 37.828125 L 7.03125 38.0625 L 6.9375 38.015625 L 7.359375 37.59375 L 7.875 37.171875 Z M 8.484375 36.609375 "/>
<path style=" stroke:none;fill-rule:nonzero;fill:rgb(100%,69.411765%,36.470588%);fill-opacity:1;" d="M 12.421875 36 L 12.421875 36.140625 L 12.046875 36.46875 L 11.8125 36.375 L 11.671875 36.1875 L 11.671875 36.09375 L 12.09375 36.09375 L 12.28125 36.1875 L 12.328125 36.046875 Z M 12.421875 36 "/>
<path style=" stroke:none;fill-rule:nonzero;fill:rgb(10.588235%,8.627451%,10.980392%);fill-opacity:1;" d="M 13.734375 34.921875 L 13.828125 34.96875 L 13.59375 35.25 L 13.546875 35.390625 L 13.21875 35.53125 L 12.890625 35.8125 L 12.890625 35.671875 L 13.359375 35.25 Z M 13.734375 34.921875 "/>
<path style=" stroke:none;fill-rule:nonzero;fill:rgb(10.980392%,9.019608%,10.980392%);fill-opacity:1;" d="M 15.84375 33.046875 L 16.03125 33.046875 L 15.984375 33.234375 L 15.75 33.28125 L 15.515625 33.515625 L 15.5625 33.609375 L 15.28125 33.65625 L 15.234375 33.75 L 15.234375 33.609375 Z M 15.84375 33.046875 "/>
<path style=" stroke:none;fill-rule:nonzero;fill:rgb(100%,67.058824%,30.196078%);fill-opacity:1;" d="M 9.234375 7.21875 L 9.421875 7.3125 L 9.890625 7.78125 L 9.84375 7.875 L 9.609375 7.6875 L 9.609375 7.59375 L 9.515625 7.59375 L 9.515625 7.5 L 9.375 7.453125 L 9.234375 7.3125 Z M 9.234375 7.21875 "/>
<path style=" stroke:none;fill-rule:nonzero;fill:rgb(10.588235%,8.627451%,10.980392%);fill-opacity:1;" d="M 6.796875 38.109375 L 6.9375 38.15625 L 6.5625 38.484375 L 6.375 38.671875 L 6.234375 38.625 Z M 6.796875 38.109375 "/>
<path style=" stroke:none;fill-rule:nonzero;fill:rgb(100%,69.803922%,38.431373%);fill-opacity:1;" d="M 16.21875 32.625 L 16.21875 32.765625 L 15.703125 33.234375 L 15.65625 33.09375 L 15.890625 32.859375 L 16.125 32.71875 Z M 16.21875 32.625 "/>
<path style=" stroke:none;fill-rule:nonzero;fill:rgb(10.588235%,8.627451%,10.980392%);fill-opacity:1;" d="M 32.4375 37.265625 L 32.578125 37.3125 L 32.4375 37.359375 L 32.4375 37.453125 L 32.015625 37.453125 L 32.015625 37.359375 Z M 32.4375 37.265625 "/>
</g>
</svg>
