<?xml version="1.0" standalone="no"?>
<!DOCTYPE svg PUBLIC "-//W3C//DTD SVG 20010904//EN"
 "http://www.w3.org/TR/2001/REC-SVG-20010904/DTD/svg10.dtd">
<svg version="1.0" xmlns="http://www.w3.org/2000/svg"
 width="512.000000pt" height="512.000000pt" viewBox="0 0 512.000000 512.000000"
 preserveAspectRatio="xMidYMid meet">

<g transform="translate(0.000000,512.000000) scale(0.100000,-0.100000)"
fill="#000000" stroke="none">
<path d="M1975 4554 c-121 -26 -226 -84 -319 -177 -116 -116 -173 -245 -198
-443 -46 -381 202 -818 687 -1208 116 -93 403 -287 519 -351 l68 -38 43 21
c23 11 91 50 151 87 519 318 906 718 1033 1070 90 248 77 513 -35 726 -36 68
-127 167 -197 215 -196 133 -441 149 -654 44 -95 -47 -217 -155 -290 -257 -24
-35 -46 -63 -47 -63 -2 0 -22 26 -44 59 -23 32 -79 94 -125 138 -171 162 -375
222 -592 177z m794 -575 c94 -21 147 -92 139 -186 -12 -141 -179 -213 -284
-121 -46 41 -64 77 -64 133 0 83 41 143 117 170 46 17 39 17 92 4z m-456 -233
c51 -19 76 -42 99 -95 30 -66 18 -123 -36 -177 -52 -52 -108 -65 -174 -39
-143 58 -141 259 3 310 50 17 60 18 108 1z m976 -17 c98 -59 115 -168 40 -254
-73 -83 -212 -65 -264 35 -19 37 -19 113 -1 148 44 84 149 117 225 71z m-460
-254 c94 -23 171 -68 246 -145 88 -92 127 -175 133 -285 10 -187 -63 -221
-317 -144 -130 38 -171 38 -308 -2 -248 -72 -327 -42 -325 126 2 199 170 399
377 451 68 17 118 16 194 -1z"/>
</g>
</svg>
