<?xml version="1.0" encoding="UTF-8"?>
<svg xmlns="http://www.w3.org/2000/svg" xmlns:xlink="http://www.w3.org/1999/xlink" width="48px" height="48px" viewBox="0 0 48 48" version="1.1">
<g id="surface1">
<path style=" stroke:none;fill-rule:nonzero;fill:rgb(0%,0%,0%);fill-opacity:1;" d="M 18.515625 5.304688 C 17.382812 5.550781 16.398438 6.09375 15.523438 6.964844 C 14.4375 8.054688 13.902344 9.261719 13.667969 11.117188 C 13.238281 14.691406 15.5625 18.789062 20.109375 22.445312 C 21.195312 23.316406 23.886719 25.132812 24.976562 25.734375 L 25.613281 26.089844 L 26.015625 25.894531 C 26.230469 25.789062 26.867188 25.425781 27.429688 25.078125 C 32.296875 22.097656 35.925781 18.347656 37.117188 15.046875 C 37.960938 12.722656 37.835938 10.238281 36.789062 8.242188 C 36.449219 7.601562 35.597656 6.675781 34.941406 6.226562 C 33.101562 4.976562 30.804688 4.828125 28.808594 5.8125 C 27.917969 6.253906 26.773438 7.265625 26.089844 8.222656 C 25.867188 8.550781 25.660156 8.8125 25.648438 8.8125 C 25.632812 8.8125 25.445312 8.570312 25.238281 8.257812 C 25.023438 7.960938 24.496094 7.378906 24.066406 6.964844 C 22.460938 5.445312 20.550781 4.882812 18.515625 5.304688 Z M 25.960938 10.695312 C 26.839844 10.894531 27.335938 11.558594 27.261719 12.441406 C 27.148438 13.761719 25.585938 14.4375 24.601562 13.574219 C 24.167969 13.191406 24 12.851562 24 12.328125 C 24 11.550781 24.382812 10.988281 25.097656 10.734375 C 25.527344 10.574219 25.460938 10.574219 25.960938 10.695312 Z M 21.683594 12.882812 C 22.164062 13.058594 22.398438 13.273438 22.613281 13.773438 C 22.894531 14.390625 22.78125 14.925781 22.273438 15.429688 C 21.789062 15.917969 21.261719 16.039062 20.644531 15.796875 C 19.304688 15.253906 19.320312 13.367188 20.671875 12.890625 C 21.140625 12.730469 21.234375 12.722656 21.683594 12.882812 Z M 30.835938 13.039062 C 31.753906 13.59375 31.914062 14.617188 31.210938 15.421875 C 30.523438 16.199219 29.222656 16.03125 28.734375 15.09375 C 28.554688 14.746094 28.554688 14.035156 28.726562 13.707031 C 29.136719 12.917969 30.121094 12.609375 30.835938 13.039062 Z M 26.523438 15.421875 C 27.402344 15.636719 28.125 16.058594 28.828125 16.78125 C 29.652344 17.644531 30.019531 18.421875 30.074219 19.453125 C 30.167969 21.207031 29.484375 21.523438 27.101562 20.804688 C 25.882812 20.445312 25.5 20.445312 24.214844 20.820312 C 21.890625 21.496094 21.148438 21.214844 21.167969 19.640625 C 21.1875 17.773438 22.761719 15.898438 24.703125 15.414062 C 25.339844 15.253906 25.808594 15.261719 26.523438 15.421875 Z M 26.523438 15.421875 "/>
</g>
</svg>
