<?xml version="1.0" encoding="UTF-8"?>
<svg xmlns="http://www.w3.org/2000/svg" xmlns:xlink="http://www.w3.org/1999/xlink" width="48px" height="48px" viewBox="0 0 48 48" version="1.1">
<g id="surface1">
<path style=" stroke:none;fill-rule:nonzero;fill:rgb(43.137255%,73.72549%,92.941176%);fill-opacity:1;" d="M 22.710938 0 L 25.335938 0 L 26.695312 0.140625 L 27.773438 0.28125 L 28.59375 0.421875 L 29.554688 0.632812 L 30.304688 0.820312 L 31.03125 1.03125 L 32.039062 1.359375 L 33.023438 1.734375 L 33.890625 2.109375 L 34.78125 2.53125 L 35.367188 2.835938 L 35.929688 3.164062 L 36.46875 3.46875 L 36.867188 3.726562 L 37.382812 4.054688 L 37.804688 4.359375 L 38.273438 4.6875 L 38.601562 4.945312 L 39.023438 5.273438 L 39.28125 5.484375 L 39.609375 5.765625 L 39.867188 5.976562 L 40.242188 6.328125 L 40.546875 6.609375 L 40.804688 6.867188 L 40.992188 7.03125 L 41.273438 7.335938 L 41.578125 7.640625 L 41.742188 7.828125 L 42 8.109375 L 42.210938 8.367188 L 42.445312 8.625 L 42.914062 9.210938 L 43.148438 9.515625 L 43.476562 9.960938 L 43.78125 10.40625 L 44.015625 10.734375 L 44.273438 11.132812 L 44.601562 11.671875 L 44.835938 12.070312 L 45.164062 12.65625 L 45.5625 13.429688 L 45.914062 14.179688 L 46.265625 15 L 46.59375 15.867188 L 46.898438 16.757812 L 47.132812 17.554688 L 47.414062 18.609375 L 47.625 19.617188 L 47.765625 20.484375 L 47.90625 21.609375 L 48 22.429688 L 48 25.5 L 47.929688 26.085938 L 47.835938 26.953125 L 47.695312 27.984375 L 47.484375 29.085938 L 47.273438 29.976562 L 47.039062 30.820312 L 46.757812 31.710938 L 46.429688 32.625 L 46.054688 33.539062 L 45.773438 34.148438 L 45.492188 34.734375 L 45.210938 35.296875 L 44.882812 35.859375 L 44.648438 36.28125 L 44.34375 36.773438 L 44.039062 37.242188 L 43.757812 37.664062 L 43.453125 38.085938 L 43.265625 38.34375 L 43.054688 38.625 L 42.585938 39.210938 L 42.328125 39.515625 L 42.117188 39.773438 L 41.8125 40.101562 L 41.648438 40.289062 L 41.484375 40.453125 L 41.320312 40.640625 L 40.523438 41.4375 L 40.335938 41.601562 L 40.148438 41.789062 L 39.890625 42 L 39.609375 42.257812 L 39.351562 42.46875 L 39.046875 42.726562 L 38.648438 43.03125 L 38.226562 43.359375 L 37.78125 43.664062 L 37.523438 43.851562 L 36.914062 44.25 L 36.46875 44.53125 L 35.859375 44.882812 L 35.273438 45.210938 L 34.453125 45.632812 L 33.585938 46.03125 L 32.90625 46.3125 L 31.96875 46.664062 L 31.125 46.945312 L 30.304688 47.179688 L 29.367188 47.414062 L 28.476562 47.601562 L 27.328125 47.789062 L 25.992188 47.953125 L 25.570312 48 L 22.476562 48 L 21.46875 47.882812 L 20.507812 47.765625 L 19.40625 47.578125 L 18.421875 47.367188 L 17.601562 47.15625 L 16.875 46.945312 L 16.03125 46.664062 L 15.257812 46.382812 L 14.414062 46.03125 L 13.851562 45.773438 L 13.265625 45.492188 L 12.867188 45.28125 L 12.328125 44.976562 L 11.90625 44.742188 L 11.4375 44.460938 L 10.921875 44.132812 L 10.195312 43.640625 L 9.773438 43.335938 L 9.28125 42.960938 L 8.953125 42.703125 L 8.648438 42.445312 L 8.390625 42.234375 L 8.15625 42.023438 L 7.96875 41.859375 L 7.6875 41.601562 L 7.382812 41.320312 L 6.515625 40.453125 L 6.351562 40.265625 L 6.1875 40.101562 L 6.023438 39.914062 L 5.71875 39.5625 L 5.4375 39.234375 L 5.179688 38.90625 L 4.851562 38.484375 L 4.523438 38.039062 L 4.242188 37.640625 L 3.773438 36.9375 L 3.421875 36.375 L 3.09375 35.8125 L 2.789062 35.25 L 2.507812 34.710938 L 2.25 34.195312 L 1.875 33.351562 L 1.59375 32.648438 L 1.335938 31.945312 L 1.054688 31.101562 L 0.773438 30.117188 L 0.5625 29.25 L 0.351562 28.195312 L 0.1875 27.117188 L 0.046875 25.78125 L 0 25.21875 L 0 22.664062 L 0.117188 21.492188 L 0.210938 20.695312 L 0.375 19.664062 L 0.609375 18.539062 L 0.820312 17.695312 L 1.078125 16.804688 L 1.40625 15.84375 L 1.6875 15.09375 L 2.109375 14.109375 L 2.34375 13.59375 L 2.53125 13.21875 L 2.835938 12.632812 L 3.140625 12.09375 L 3.515625 11.460938 L 3.679688 11.203125 L 4.03125 10.664062 L 4.289062 10.289062 L 4.59375 9.867188 L 4.828125 9.539062 L 5.132812 9.164062 L 5.4375 8.765625 L 5.648438 8.53125 L 5.859375 8.273438 L 6.09375 8.015625 L 6.257812 7.828125 L 6.46875 7.59375 L 6.820312 7.21875 L 7.40625 6.632812 L 7.453125 6.632812 L 7.476562 6.5625 L 7.664062 6.398438 L 7.96875 6.117188 L 8.226562 5.90625 L 8.507812 5.648438 L 8.765625 5.4375 L 9.09375 5.179688 L 9.445312 4.898438 L 9.890625 4.570312 L 10.3125 4.265625 L 10.804688 3.9375 L 11.203125 3.679688 L 11.695312 3.375 L 12.210938 3.070312 L 12.773438 2.765625 L 13.453125 2.414062 L 14.203125 2.0625 L 14.976562 1.734375 L 15.773438 1.429688 L 16.875 1.054688 L 17.859375 0.773438 L 18.632812 0.585938 L 19.546875 0.398438 L 20.695312 0.210938 L 21.445312 0.117188 L 22.40625 0.0234375 Z M 22.710938 0 "/>
<path style=" stroke:none;fill-rule:nonzero;fill:rgb(48.235294%,92.156863%,99.215686%);fill-opacity:1;" d="M 22.710938 0 L 25.335938 0 L 26.695312 0.140625 L 27.773438 0.28125 L 28.59375 0.421875 L 29.554688 0.632812 L 30.304688 0.820312 L 31.03125 1.03125 L 32.039062 1.359375 L 33.023438 1.734375 L 33.890625 2.109375 L 34.78125 2.53125 L 35.367188 2.835938 L 35.929688 3.164062 L 36.46875 3.46875 L 36.867188 3.726562 L 37.382812 4.054688 L 37.804688 4.359375 L 38.273438 4.6875 L 38.601562 4.945312 L 39.023438 5.273438 L 39.28125 5.484375 L 39.609375 5.765625 L 39.867188 5.976562 L 40.242188 6.328125 L 40.546875 6.609375 L 40.804688 6.867188 L 40.992188 7.03125 L 41.273438 7.335938 L 41.578125 7.640625 L 41.742188 7.828125 L 42 8.109375 L 42.210938 8.367188 L 42.445312 8.625 L 42.914062 9.210938 L 43.148438 9.515625 L 43.476562 9.960938 L 43.78125 10.40625 L 44.015625 10.734375 L 44.273438 11.132812 L 44.601562 11.671875 L 44.835938 12.070312 L 45.164062 12.65625 L 45.5625 13.429688 L 45.914062 14.179688 L 46.265625 15 L 46.59375 15.867188 L 46.898438 16.757812 L 47.132812 17.554688 L 47.34375 18.351562 L 47.34375 18.421875 L 47.25 18.375 L 47.015625 18.164062 L 46.242188 17.390625 L 46.195312 17.367188 L 46.195312 17.320312 L 46.101562 17.273438 L 45.609375 16.78125 L 45.609375 16.734375 L 45.5625 16.734375 L 45.398438 16.546875 L 45.164062 16.335938 L 37.523438 8.695312 L 37.523438 8.648438 L 37.429688 8.601562 L 37.265625 8.414062 L 36.960938 8.132812 L 36.84375 8.015625 L 36.609375 7.804688 L 36.375 7.546875 L 36.1875 7.3125 L 36 7.148438 L 35.835938 6.960938 L 35.789062 6.9375 L 35.789062 6.890625 L 35.695312 6.84375 L 35.414062 6.585938 L 35.015625 6.28125 L 34.570312 6 L 33.984375 5.695312 L 33.515625 5.507812 L 32.976562 5.34375 L 32.390625 5.226562 L 31.992188 5.179688 L 31.617188 5.15625 L 31.265625 5.15625 L 30.703125 5.203125 L 30.09375 5.320312 L 29.53125 5.484375 L 29.0625 5.671875 L 28.6875 5.859375 L 28.3125 6.070312 L 28.03125 6.257812 L 27.75 6.46875 L 27.515625 6.65625 L 27.28125 6.867188 L 27.09375 7.03125 L 26.859375 7.265625 L 26.695312 7.453125 L 26.484375 7.6875 L 26.179688 8.085938 L 25.992188 8.34375 L 25.757812 8.695312 L 25.664062 8.859375 L 25.570312 8.789062 L 25.453125 8.578125 L 25.148438 8.132812 L 24.984375 7.921875 L 24.773438 7.664062 L 24.5625 7.429688 L 24.398438 7.242188 L 24.070312 6.914062 L 23.8125 6.703125 L 23.507812 6.445312 L 23.109375 6.164062 L 22.640625 5.882812 L 22.125 5.625 L 21.609375 5.4375 L 21.164062 5.320312 L 20.671875 5.226562 L 20.320312 5.179688 L 19.242188 5.179688 L 18.492188 5.296875 L 17.976562 5.4375 L 17.554688 5.578125 L 17.203125 5.742188 L 16.828125 5.929688 L 16.476562 6.140625 L 16.148438 6.375 L 15.84375 6.609375 L 15.492188 6.9375 L 15.234375 7.195312 L 15.09375 7.382812 L 15.046875 7.382812 L 15 7.5 L 14.789062 7.757812 L 14.71875 7.898438 L 14.671875 7.898438 L 14.625 8.039062 L 14.484375 8.273438 L 14.203125 8.90625 L 14.015625 9.445312 L 13.851562 10.007812 L 13.734375 10.570312 L 13.664062 11.015625 L 13.617188 11.554688 L 13.617188 12.28125 L 13.6875 13.054688 L 13.804688 13.757812 L 13.96875 14.390625 L 14.203125 15.09375 L 14.460938 15.703125 L 14.789062 16.382812 L 15.023438 16.804688 L 15.164062 17.039062 L 15.515625 17.601562 L 15.65625 17.789062 L 15.890625 18.117188 L 16.453125 18.867188 L 16.453125 18.914062 L 16.523438 18.9375 L 16.734375 19.195312 L 16.992188 19.476562 L 17.015625 19.570312 L 17.109375 19.617188 L 17.25 19.78125 L 17.367188 19.898438 L 17.507812 20.0625 L 18.492188 21.046875 L 18.679688 21.210938 L 19.03125 21.539062 L 19.195312 21.65625 L 19.3125 21.773438 L 19.382812 21.890625 L 19.523438 22.007812 L 19.523438 22.054688 L 19.617188 22.101562 L 19.710938 22.195312 L 19.710938 22.242188 L 19.804688 22.289062 L 19.804688 22.335938 L 19.898438 22.382812 L 20.015625 22.523438 L 20.085938 22.570312 L 20.085938 22.640625 L 20.179688 22.6875 L 20.179688 22.734375 L 20.273438 22.78125 L 20.554688 23.0625 L 20.742188 23.226562 L 20.742188 23.273438 L 20.835938 23.320312 L 20.835938 23.367188 L 20.929688 23.414062 L 20.929688 23.460938 L 21.023438 23.507812 L 21.257812 23.742188 L 21.257812 23.789062 L 21.304688 23.789062 L 21.304688 23.835938 L 21.398438 23.882812 L 21.65625 24.140625 L 21.65625 24.1875 L 21.75 24.234375 L 21.867188 24.375 L 22.054688 24.539062 L 22.148438 24.65625 L 22.265625 24.773438 L 22.40625 24.890625 L 22.523438 25.03125 L 24.398438 26.90625 L 24.492188 26.976562 L 24.492188 27.023438 L 24.585938 27.070312 L 24.585938 27.117188 L 24.679688 27.164062 L 24.679688 27.210938 L 24.773438 27.257812 L 24.867188 27.351562 L 24.867188 27.398438 L 24.960938 27.445312 L 26.648438 29.132812 L 26.835938 29.296875 L 27 29.460938 L 27.070312 29.601562 L 18.75 29.601562 L 17.976562 29.625 L 17.320312 29.695312 L 16.734375 29.789062 L 16.078125 29.929688 L 15.492188 30.09375 L 15.210938 30.210938 L 14.835938 30.421875 L 14.601562 30.585938 L 14.179688 30.84375 L 13.710938 31.148438 L 13.265625 31.429688 L 12.726562 31.78125 L 12.304688 32.039062 L 11.90625 32.296875 L 11.578125 32.507812 L 9.070312 34.101562 L 8.273438 34.59375 L 8.015625 34.757812 L 7.617188 35.015625 L 7.101562 35.34375 L 6.796875 35.53125 L 6.5625 35.671875 L 6.164062 35.929688 L 5.273438 36.492188 L 4.945312 36.703125 L 4.664062 36.890625 L 4.125 37.242188 L 4.007812 37.289062 L 3.773438 36.9375 L 3.421875 36.375 L 3.09375 35.8125 L 2.789062 35.25 L 2.507812 34.710938 L 2.25 34.195312 L 1.875 33.351562 L 1.59375 32.648438 L 1.335938 31.945312 L 1.054688 31.101562 L 0.773438 30.117188 L 0.5625 29.25 L 0.351562 28.195312 L 0.1875 27.117188 L 0.046875 25.78125 L 0 25.21875 L 0 22.664062 L 0.117188 21.492188 L 0.210938 20.695312 L 0.375 19.664062 L 0.609375 18.539062 L 0.820312 17.695312 L 1.078125 16.804688 L 1.40625 15.84375 L 1.6875 15.09375 L 2.109375 14.109375 L 2.34375 13.59375 L 2.53125 13.21875 L 2.835938 12.632812 L 3.140625 12.09375 L 3.515625 11.460938 L 3.679688 11.203125 L 4.03125 10.664062 L 4.289062 10.289062 L 4.59375 9.867188 L 4.828125 9.539062 L 5.132812 9.164062 L 5.4375 8.765625 L 5.648438 8.53125 L 5.859375 8.273438 L 6.09375 8.015625 L 6.257812 7.828125 L 6.46875 7.59375 L 6.820312 7.21875 L 7.40625 6.632812 L 7.453125 6.632812 L 7.476562 6.5625 L 7.664062 6.398438 L 7.96875 6.117188 L 8.226562 5.90625 L 8.507812 5.648438 L 8.765625 5.4375 L 9.09375 5.179688 L 9.445312 4.898438 L 9.890625 4.570312 L 10.3125 4.265625 L 10.804688 3.9375 L 11.203125 3.679688 L 11.695312 3.375 L 12.210938 3.070312 L 12.773438 2.765625 L 13.453125 2.414062 L 14.203125 2.0625 L 14.976562 1.734375 L 15.773438 1.429688 L 16.875 1.054688 L 17.859375 0.773438 L 18.632812 0.585938 L 19.546875 0.398438 L 20.695312 0.210938 L 21.445312 0.117188 L 22.40625 0.0234375 Z M 22.710938 0 "/>
<path style=" stroke:none;fill-rule:nonzero;fill:rgb(89.411765%,16.862745%,36.470588%);fill-opacity:1;" d="M 31.265625 5.132812 L 31.617188 5.132812 L 32.226562 5.179688 L 32.671875 5.25 L 33.140625 5.367188 L 33.773438 5.578125 L 34.453125 5.90625 L 34.875 6.164062 L 35.203125 6.398438 L 35.507812 6.65625 L 35.695312 6.820312 L 35.789062 6.890625 L 35.789062 6.9375 L 35.882812 6.984375 L 36.046875 7.171875 L 36.257812 7.40625 L 36.492188 7.710938 L 36.679688 8.015625 L 36.867188 8.367188 L 37.101562 8.90625 L 37.289062 9.421875 L 37.453125 10.007812 L 37.59375 10.6875 L 37.664062 11.226562 L 37.6875 11.507812 L 37.6875 12.46875 L 37.59375 13.242188 L 37.476562 13.851562 L 37.289062 14.554688 L 37.054688 15.210938 L 36.796875 15.820312 L 36.445312 16.523438 L 36.1875 16.96875 L 36 17.273438 L 35.671875 17.765625 L 35.390625 18.164062 L 35.109375 18.539062 L 34.898438 18.796875 L 34.59375 19.171875 L 34.359375 19.429688 L 34.148438 19.6875 L 33.9375 19.898438 L 33.773438 20.085938 L 32.765625 21.09375 L 32.578125 21.257812 L 32.296875 21.515625 L 32.039062 21.726562 L 31.734375 22.007812 L 31.523438 22.171875 L 31.125 22.5 L 30.796875 22.757812 L 30.375 23.085938 L 29.953125 23.390625 L 29.671875 23.601562 L 29.273438 23.882812 L 28.265625 24.5625 L 27.75 24.890625 L 27.257812 25.195312 L 26.742188 25.5 L 26.085938 25.875 L 25.640625 26.109375 L 25.265625 25.921875 L 24.679688 25.59375 L 24.046875 25.21875 L 23.484375 24.867188 L 23.039062 24.585938 L 22.101562 23.953125 L 21.703125 23.671875 L 21.28125 23.367188 L 20.625 22.875 L 20.320312 22.640625 L 20.0625 22.429688 L 19.851562 22.265625 L 19.851562 22.21875 L 19.734375 22.171875 L 19.476562 21.9375 L 19.21875 21.726562 L 19.195312 21.65625 L 19.101562 21.609375 L 18.867188 21.398438 L 18.679688 21.234375 L 18.28125 20.859375 L 17.554688 20.132812 L 17.554688 20.085938 L 17.460938 20.039062 L 17.296875 19.851562 L 17.296875 19.804688 L 17.203125 19.757812 L 17.0625 19.59375 L 16.992188 19.523438 L 16.78125 19.265625 L 16.523438 18.984375 L 16.429688 18.867188 L 16.21875 18.585938 L 15.914062 18.1875 L 15.632812 17.789062 L 15.375 17.414062 L 15.09375 16.96875 L 14.953125 16.710938 L 14.71875 16.289062 L 14.390625 15.609375 L 14.132812 14.953125 L 13.945312 14.390625 L 13.828125 13.945312 L 13.734375 13.5 L 13.664062 13.054688 L 13.59375 12.28125 L 13.59375 11.554688 L 13.664062 10.851562 L 13.78125 10.21875 L 13.945312 9.585938 L 14.109375 9.09375 L 14.34375 8.53125 L 14.53125 8.15625 L 14.671875 7.898438 L 14.71875 7.898438 L 14.765625 7.757812 L 15.023438 7.429688 L 15.046875 7.382812 L 15.09375 7.382812 L 15.140625 7.289062 L 15.398438 7.007812 L 15.703125 6.703125 L 15.960938 6.492188 L 16.335938 6.210938 L 16.710938 5.976562 L 17.085938 5.765625 L 17.53125 5.578125 L 17.695312 5.507812 L 18.210938 5.34375 L 18.75 5.226562 L 19.242188 5.15625 L 20.320312 5.15625 L 20.953125 5.25 L 21.375 5.34375 L 21.9375 5.53125 L 22.3125 5.695312 L 22.851562 5.976562 L 23.34375 6.304688 L 23.648438 6.539062 L 23.976562 6.820312 L 24.257812 7.078125 L 24.5625 7.382812 L 24.773438 7.640625 L 24.960938 7.851562 L 25.195312 8.15625 L 25.570312 8.71875 L 25.640625 8.835938 L 25.710938 8.742188 L 25.921875 8.414062 L 26.109375 8.15625 L 26.320312 7.875 L 26.53125 7.617188 L 26.8125 7.3125 L 26.976562 7.125 L 27.234375 6.867188 L 27.492188 6.65625 L 27.679688 6.492188 L 28.125 6.164062 L 28.429688 5.976562 L 28.945312 5.695312 L 29.53125 5.460938 L 30.09375 5.296875 L 30.703125 5.179688 Z M 31.265625 5.132812 "/>
<path style=" stroke:none;fill-rule:nonzero;fill:rgb(99.215686%,76.078431%,63.921569%);fill-opacity:1;" d="M 37.734375 29.53125 L 38.039062 29.53125 L 38.460938 29.578125 L 38.859375 29.671875 L 39.375 29.859375 L 39.820312 30.09375 L 40.101562 30.304688 L 40.335938 30.515625 L 40.59375 30.773438 L 40.828125 31.125 L 41.015625 31.5 L 41.109375 31.757812 L 41.15625 31.992188 L 41.15625 32.554688 L 41.039062 33.070312 L 40.875 33.492188 L 40.617188 33.960938 L 40.3125 34.40625 L 40.054688 34.710938 L 39.890625 34.898438 L 39.632812 35.179688 L 39.210938 35.601562 L 39.023438 35.765625 L 38.742188 36.023438 L 38.132812 36.585938 L 37.851562 36.84375 L 37.664062 37.007812 L 37.3125 37.335938 L 37.078125 37.546875 L 36.773438 37.828125 L 35.929688 38.601562 L 35.601562 38.90625 L 35.34375 39.117188 L 34.992188 39.351562 L 34.617188 39.5625 L 33.960938 39.84375 L 33.117188 40.125 L 32.179688 40.359375 L 31.382812 40.5 L 30.515625 40.617188 L 29.789062 40.6875 L 28.3125 40.757812 L 26.765625 40.78125 L 19.59375 40.757812 L 16.757812 40.757812 L 16.523438 40.992188 L 16.3125 41.25 L 16.125 41.484375 L 15.796875 41.882812 L 15.539062 42.210938 L 15.210938 42.609375 L 15 42.867188 L 14.671875 43.265625 L 14.484375 43.5 L 14.226562 43.828125 L 14.039062 44.0625 L 13.992188 44.0625 L 13.945312 44.179688 L 13.898438 44.179688 L 13.851562 44.273438 L 13.429688 44.789062 L 13.242188 45.023438 L 13.03125 45.28125 L 12.984375 45.351562 L 12.65625 45.164062 L 12.023438 44.8125 L 11.4375 44.460938 L 10.921875 44.132812 L 10.195312 43.640625 L 9.773438 43.335938 L 9.28125 42.960938 L 8.953125 42.703125 L 8.648438 42.445312 L 8.390625 42.234375 L 8.15625 42.023438 L 7.96875 41.859375 L 7.6875 41.601562 L 7.382812 41.320312 L 6.515625 40.453125 L 6.351562 40.265625 L 6.1875 40.101562 L 6.023438 39.914062 L 5.71875 39.5625 L 5.4375 39.234375 L 5.179688 38.90625 L 4.851562 38.484375 L 4.523438 38.039062 L 4.242188 37.640625 L 4.03125 37.335938 L 4.078125 37.242188 L 4.5 36.984375 L 4.804688 36.773438 L 5.273438 36.46875 L 6.164062 35.90625 L 6.5625 35.648438 L 6.890625 35.460938 L 7.101562 35.320312 L 7.617188 34.992188 L 8.015625 34.734375 L 8.578125 34.382812 L 9 34.125 L 9.445312 33.84375 L 9.84375 33.585938 L 11.0625 32.8125 L 11.507812 32.53125 L 11.90625 32.273438 L 12.351562 31.992188 L 12.9375 31.617188 L 13.382812 31.335938 L 13.921875 30.984375 L 14.34375 30.726562 L 14.742188 30.46875 L 15.117188 30.234375 L 15.421875 30.09375 L 15.984375 29.929688 L 16.5 29.8125 L 17.015625 29.71875 L 17.71875 29.625 L 17.976562 29.601562 L 18.75 29.578125 L 30.328125 29.601562 L 30.796875 29.625 L 31.148438 29.695312 L 31.476562 29.8125 L 31.78125 30.023438 L 31.945312 30.1875 L 32.109375 30.421875 L 32.273438 30.773438 L 32.34375 31.125 L 32.320312 31.570312 L 32.25 32.039062 L 32.109375 32.53125 L 31.96875 32.882812 L 31.851562 33.070312 L 31.828125 33.140625 L 31.945312 33.09375 L 32.226562 32.882812 L 32.554688 32.625 L 32.90625 32.367188 L 33.28125 32.085938 L 33.773438 31.710938 L 34.21875 31.382812 L 34.523438 31.148438 L 34.945312 30.820312 L 35.320312 30.539062 L 35.71875 30.257812 L 36.070312 30.046875 L 36.5625 29.8125 L 37.054688 29.648438 L 37.335938 29.578125 Z M 37.734375 29.53125 "/>
<path style=" stroke:none;fill-rule:nonzero;fill:rgb(99.215686%,85.098039%,74.509804%);fill-opacity:1;" d="M 15.257812 30.164062 L 15.304688 30.1875 L 15.351562 30.492188 L 15.539062 31.171875 L 15.726562 31.640625 L 15.890625 31.96875 L 16.101562 32.320312 L 16.335938 32.648438 L 16.640625 33 L 16.898438 33.257812 L 16.945312 33.28125 L 16.945312 33.328125 L 17.039062 33.375 L 17.390625 33.632812 L 17.765625 33.867188 L 18.117188 34.054688 L 18.46875 34.195312 L 18.867188 34.335938 L 19.289062 34.429688 L 19.898438 34.476562 L 21.375 34.523438 L 25.5 34.523438 L 25.59375 34.5 L 25.617188 39.773438 L 25.617188 40.710938 L 26.789062 40.734375 L 26.976562 40.757812 L 26.976562 40.78125 L 19.59375 40.757812 L 16.757812 40.757812 L 16.523438 40.992188 L 16.3125 41.25 L 16.125 41.484375 L 15.796875 41.882812 L 15.539062 42.210938 L 15.210938 42.609375 L 15 42.867188 L 14.671875 43.265625 L 14.484375 43.5 L 14.226562 43.828125 L 14.039062 44.0625 L 13.992188 44.0625 L 13.945312 44.179688 L 13.898438 44.179688 L 13.851562 44.273438 L 13.429688 44.789062 L 13.242188 45.023438 L 13.03125 45.28125 L 12.984375 45.351562 L 12.65625 45.164062 L 12.023438 44.8125 L 11.4375 44.460938 L 10.921875 44.132812 L 10.195312 43.640625 L 9.773438 43.335938 L 9.28125 42.960938 L 8.953125 42.703125 L 8.648438 42.445312 L 8.390625 42.234375 L 8.15625 42.023438 L 7.96875 41.859375 L 7.6875 41.601562 L 7.382812 41.320312 L 6.515625 40.453125 L 6.351562 40.265625 L 6.1875 40.101562 L 6.023438 39.914062 L 5.71875 39.5625 L 5.4375 39.234375 L 5.179688 38.90625 L 4.851562 38.484375 L 4.523438 38.039062 L 4.242188 37.640625 L 4.03125 37.335938 L 4.078125 37.242188 L 4.5 36.984375 L 4.804688 36.773438 L 5.273438 36.46875 L 6.164062 35.90625 L 6.5625 35.648438 L 6.890625 35.460938 L 7.101562 35.320312 L 7.617188 34.992188 L 8.015625 34.734375 L 8.578125 34.382812 L 9 34.125 L 9.445312 33.84375 L 9.84375 33.585938 L 11.0625 32.8125 L 11.507812 32.53125 L 11.90625 32.273438 L 12.351562 31.992188 L 12.9375 31.617188 L 13.382812 31.335938 L 13.921875 30.984375 L 14.34375 30.726562 L 14.742188 30.46875 L 15.117188 30.234375 Z M 15.257812 30.164062 "/>
<path style=" stroke:none;fill-rule:nonzero;fill:rgb(67.843137%,8.627451%,36.078431%);fill-opacity:1;" d="M 31.265625 5.132812 L 31.617188 5.132812 L 32.226562 5.179688 L 32.671875 5.25 L 33.140625 5.367188 L 33.773438 5.578125 L 34.453125 5.90625 L 34.875 6.164062 L 35.203125 6.398438 L 35.507812 6.65625 L 35.695312 6.820312 L 35.789062 6.890625 L 35.789062 6.9375 L 35.882812 6.984375 L 36.046875 7.171875 L 36.257812 7.40625 L 36.492188 7.710938 L 36.679688 8.015625 L 36.867188 8.367188 L 37.101562 8.90625 L 37.289062 9.421875 L 37.453125 10.007812 L 37.59375 10.6875 L 37.664062 11.226562 L 37.6875 11.507812 L 37.6875 12.46875 L 37.59375 13.242188 L 37.476562 13.851562 L 37.289062 14.554688 L 37.054688 15.210938 L 36.796875 15.820312 L 36.445312 16.523438 L 36.1875 16.96875 L 36 17.273438 L 35.671875 17.765625 L 35.390625 18.164062 L 35.109375 18.539062 L 34.898438 18.796875 L 34.59375 19.171875 L 34.359375 19.429688 L 34.148438 19.6875 L 33.9375 19.898438 L 33.773438 20.085938 L 32.765625 21.09375 L 32.578125 21.257812 L 32.296875 21.515625 L 32.039062 21.726562 L 31.734375 22.007812 L 31.523438 22.171875 L 31.125 22.5 L 30.796875 22.757812 L 30.375 23.085938 L 29.953125 23.390625 L 29.671875 23.601562 L 29.273438 23.882812 L 28.265625 24.5625 L 27.75 24.890625 L 27.257812 25.195312 L 26.742188 25.5 L 26.085938 25.875 L 25.6875 26.085938 L 25.640625 26.039062 L 25.617188 25.3125 L 25.640625 23.484375 L 25.617188 22.125 L 25.617188 21.328125 L 25.664062 20.742188 L 25.664062 20.578125 L 25.640625 20.484375 L 25.96875 20.484375 L 26.554688 20.625 L 27.796875 20.976562 L 28.3125 21.09375 L 28.640625 21.140625 L 29.132812 21.140625 L 29.484375 21.046875 L 29.71875 20.90625 L 29.859375 20.742188 L 30 20.460938 L 30.09375 20.039062 L 30.09375 19.429688 L 30.023438 18.9375 L 29.882812 18.445312 L 29.695312 18 L 29.484375 17.601562 L 29.15625 17.132812 L 28.921875 16.875 L 28.757812 16.6875 L 28.453125 16.40625 L 28.078125 16.125 L 27.703125 15.890625 L 27.328125 15.703125 L 26.929688 15.539062 L 26.390625 15.398438 L 26.132812 15.351562 L 25.851562 15.328125 L 25.640625 15.28125 L 25.617188 15.1875 L 25.617188 14.085938 L 25.59375 13.96875 L 25.828125 13.945312 L 26.226562 13.828125 L 26.601562 13.640625 L 26.882812 13.382812 L 27.09375 13.054688 L 27.1875 12.84375 L 27.257812 12.5625 L 27.257812 12.023438 L 27.1875 11.742188 L 27.023438 11.414062 L 26.859375 11.179688 L 26.671875 11.015625 L 26.414062 10.851562 L 26.132812 10.734375 L 25.78125 10.640625 L 25.640625 10.617188 L 25.617188 10.382812 L 25.617188 8.859375 L 25.6875 8.789062 L 25.828125 8.554688 L 26.015625 8.273438 L 26.25 7.96875 L 26.507812 7.640625 L 26.8125 7.3125 L 26.976562 7.125 L 27.234375 6.867188 L 27.492188 6.65625 L 27.679688 6.492188 L 28.125 6.164062 L 28.429688 5.976562 L 28.945312 5.695312 L 29.53125 5.460938 L 30.09375 5.296875 L 30.703125 5.179688 Z M 31.265625 5.132812 "/>
<path style=" stroke:none;fill-rule:nonzero;fill:rgb(99.215686%,76.078431%,63.921569%);fill-opacity:1;" d="M 18.75 29.578125 L 30.328125 29.601562 L 30.328125 29.625 L 26.578125 29.648438 L 25.640625 29.671875 L 25.617188 34.546875 L 25.59375 34.5 L 25.5 34.546875 L 21.375 34.546875 L 19.898438 34.5 L 19.289062 34.453125 L 18.867188 34.359375 L 18.28125 34.148438 L 17.835938 33.9375 L 17.460938 33.703125 L 17.132812 33.46875 L 16.945312 33.328125 L 16.945312 33.28125 L 16.851562 33.234375 L 16.523438 32.90625 L 16.3125 32.648438 L 16.078125 32.320312 L 15.84375 31.921875 L 15.65625 31.546875 L 15.515625 31.171875 L 15.328125 30.492188 L 15.28125 30.1875 L 15.351562 30.117188 L 15.890625 29.953125 L 16.5 29.8125 L 17.015625 29.71875 L 17.71875 29.625 L 17.976562 29.601562 Z M 18.75 29.578125 "/>
<path style=" stroke:none;fill-rule:nonzero;fill:rgb(99.215686%,98.823529%,98.431373%);fill-opacity:1;" d="M 25.335938 15.304688 L 25.851562 15.304688 L 26.25 15.351562 L 26.765625 15.46875 L 27.234375 15.632812 L 27.609375 15.820312 L 27.984375 16.03125 L 28.382812 16.335938 L 28.710938 16.617188 L 28.921875 16.828125 L 29.132812 17.085938 L 29.320312 17.320312 L 29.601562 17.765625 L 29.835938 18.257812 L 30 18.75 L 30.09375 19.21875 L 30.117188 19.429688 L 30.117188 20.039062 L 30.023438 20.460938 L 29.882812 20.742188 L 29.695312 20.953125 L 29.414062 21.09375 L 29.132812 21.164062 L 28.640625 21.164062 L 28.078125 21.070312 L 27.28125 20.859375 L 26.460938 20.625 L 25.96875 20.507812 L 25.828125 20.484375 L 25.546875 20.484375 L 25.125 20.554688 L 23.34375 21.046875 L 22.734375 21.164062 L 22.101562 21.164062 L 21.796875 21.070312 L 21.5625 20.929688 L 21.375 20.71875 L 21.257812 20.460938 L 21.1875 20.203125 L 21.140625 19.710938 L 21.164062 19.3125 L 21.28125 18.726562 L 21.445312 18.234375 L 21.65625 17.789062 L 21.890625 17.414062 L 22.101562 17.132812 L 22.359375 16.828125 L 22.5 16.664062 L 22.6875 16.5 L 23.015625 16.21875 L 23.367188 15.984375 L 23.742188 15.773438 L 24.09375 15.609375 L 24.492188 15.46875 L 24.867188 15.375 Z M 25.335938 15.304688 "/>
<path style=" stroke:none;fill-rule:nonzero;fill:rgb(98.039216%,67.058824%,56.470588%);fill-opacity:1;" d="M 26.578125 29.625 L 30.796875 29.625 L 31.148438 29.695312 L 31.476562 29.8125 L 31.78125 30.023438 L 31.945312 30.1875 L 32.109375 30.421875 L 32.273438 30.773438 L 32.34375 31.125 L 32.320312 31.570312 L 32.25 32.039062 L 32.109375 32.53125 L 31.96875 32.882812 L 31.851562 33.070312 L 31.828125 33.140625 L 31.78125 33.140625 L 31.757812 33.257812 L 31.335938 33.5625 L 31.101562 33.726562 L 30.84375 33.890625 L 30.515625 34.054688 L 30.210938 34.195312 L 29.71875 34.359375 L 29.25 34.453125 L 28.945312 34.5 L 28.476562 34.523438 L 27.328125 34.546875 L 25.617188 34.546875 L 25.617188 29.671875 L 25.640625 29.648438 Z M 26.578125 29.625 "/>
<path style=" stroke:none;fill-rule:nonzero;fill:rgb(81.960784%,81.960784%,81.568627%);fill-opacity:1;" d="M 25.335938 15.304688 L 25.851562 15.304688 L 26.25 15.351562 L 26.765625 15.46875 L 27.234375 15.632812 L 27.609375 15.820312 L 27.984375 16.03125 L 28.382812 16.335938 L 28.710938 16.617188 L 28.921875 16.828125 L 29.132812 17.085938 L 29.320312 17.320312 L 29.601562 17.765625 L 29.835938 18.257812 L 30 18.75 L 30.09375 19.21875 L 30.117188 19.429688 L 30.117188 20.039062 L 30.023438 20.460938 L 29.882812 20.742188 L 29.695312 20.953125 L 29.414062 21.09375 L 29.132812 21.164062 L 28.640625 21.164062 L 28.078125 21.070312 L 27.28125 20.859375 L 26.460938 20.625 L 25.96875 20.507812 L 25.828125 20.484375 L 25.546875 20.484375 L 25.21875 20.507812 L 25.21875 20.484375 L 25.5 20.4375 L 25.664062 20.4375 L 25.640625 19.335938 L 25.640625 15.351562 L 25.382812 15.351562 L 25.007812 15.375 L 25.007812 15.351562 Z M 25.335938 15.304688 "/>
<path style=" stroke:none;fill-rule:nonzero;fill:rgb(98.823529%,98.431373%,98.431373%);fill-opacity:1;" d="M 25.40625 10.640625 L 25.851562 10.640625 L 26.132812 10.710938 L 26.414062 10.828125 L 26.671875 10.992188 L 26.8125 11.109375 L 26.8125 11.15625 L 26.882812 11.179688 L 27.117188 11.53125 L 27.234375 11.8125 L 27.28125 12.023438 L 27.28125 12.5625 L 27.1875 12.914062 L 27.023438 13.21875 L 26.835938 13.453125 L 26.601562 13.664062 L 26.226562 13.851562 L 25.875 13.945312 L 25.382812 13.945312 L 25.03125 13.851562 L 24.796875 13.734375 L 24.539062 13.546875 L 24.351562 13.359375 L 24.164062 13.054688 L 24.046875 12.773438 L 24 12.609375 L 23.976562 12.398438 L 23.976562 12.1875 L 24.046875 11.8125 L 24.140625 11.578125 L 24.304688 11.296875 L 24.539062 11.039062 L 24.84375 10.828125 L 25.195312 10.6875 Z M 25.40625 10.640625 "/>
<path style=" stroke:none;fill-rule:nonzero;fill:rgb(98.823529%,98.431373%,98.039216%);fill-opacity:1;" d="M 21.140625 12.796875 L 21.492188 12.820312 L 21.796875 12.914062 L 22.054688 13.054688 L 22.265625 13.21875 L 22.453125 13.429688 L 22.640625 13.757812 L 22.734375 14.085938 L 22.757812 14.25 L 22.757812 14.4375 L 22.6875 14.789062 L 22.570312 15.09375 L 22.40625 15.328125 L 22.242188 15.515625 L 22.007812 15.679688 L 21.632812 15.84375 L 21.421875 15.890625 L 20.953125 15.890625 L 20.625 15.796875 L 20.34375 15.65625 L 20.085938 15.445312 L 19.898438 15.210938 L 19.734375 14.882812 L 19.664062 14.625 L 19.640625 14.460938 L 19.640625 14.226562 L 19.710938 13.875 L 19.804688 13.664062 L 19.945312 13.429688 L 20.203125 13.148438 L 20.460938 12.984375 L 20.671875 12.890625 L 20.929688 12.820312 Z M 21.140625 12.796875 "/>
<path style=" stroke:none;fill-rule:nonzero;fill:rgb(81.960784%,81.960784%,81.568627%);fill-opacity:1;" d="M 29.882812 12.84375 L 30.351562 12.84375 L 30.609375 12.914062 L 30.984375 13.101562 L 31.265625 13.359375 L 31.476562 13.664062 L 31.570312 13.875 L 31.640625 14.15625 L 31.640625 14.601562 L 31.523438 15 L 31.40625 15.210938 L 31.242188 15.421875 L 31.054688 15.609375 L 30.820312 15.75 L 30.539062 15.867188 L 30.351562 15.914062 L 29.882812 15.914062 L 29.507812 15.820312 L 29.179688 15.632812 L 29.039062 15.515625 L 29.039062 15.46875 L 28.96875 15.445312 L 28.757812 15.140625 L 28.617188 14.8125 L 28.570312 14.601562 L 28.570312 14.109375 L 28.664062 13.804688 L 28.78125 13.570312 L 28.945312 13.359375 L 29.15625 13.148438 L 29.484375 12.960938 L 29.765625 12.867188 Z M 29.882812 12.84375 "/>
<path style=" stroke:none;fill-rule:nonzero;fill:rgb(81.960784%,81.960784%,81.568627%);fill-opacity:1;" d="M 25.40625 10.640625 L 25.851562 10.640625 L 26.132812 10.710938 L 26.414062 10.828125 L 26.671875 10.992188 L 26.8125 11.109375 L 26.8125 11.15625 L 26.882812 11.179688 L 27.117188 11.53125 L 27.234375 11.8125 L 27.28125 12.023438 L 27.28125 12.5625 L 27.1875 12.914062 L 27.023438 13.21875 L 26.835938 13.453125 L 26.601562 13.664062 L 26.226562 13.851562 L 25.875 13.945312 L 25.382812 13.945312 L 25.382812 13.921875 L 25.640625 13.921875 L 25.640625 10.664062 L 25.40625 10.664062 Z M 25.40625 10.640625 "/>
<path style=" stroke:none;fill-rule:nonzero;fill:rgb(81.960784%,82.352941%,81.960784%);fill-opacity:1;" d="M 8.90625 34.171875 L 8.953125 34.195312 L 8.578125 34.476562 L 8.226562 34.710938 L 7.851562 34.945312 L 7.382812 35.25 L 7.007812 35.484375 L 6.539062 35.789062 L 6.28125 35.953125 L 5.882812 36.210938 L 5.601562 36.398438 L 5.203125 36.65625 L 4.734375 36.9375 L 4.40625 37.125 L 4.195312 37.242188 L 4.125 37.21875 L 4.664062 36.867188 L 4.945312 36.679688 L 5.53125 36.304688 L 6.023438 36 L 6.375 35.765625 L 6.726562 35.554688 L 6.984375 35.390625 L 7.546875 35.039062 L 8.015625 34.734375 L 8.578125 34.382812 Z M 8.90625 34.171875 "/>
<path style=" stroke:none;fill-rule:nonzero;fill:rgb(81.960784%,82.352941%,81.568627%);fill-opacity:1;" d="M 40.78125 31.101562 L 40.875 31.195312 L 41.039062 31.546875 L 41.132812 31.875 L 41.15625 31.992188 L 41.15625 32.554688 L 41.039062 33.070312 L 40.875 33.492188 L 40.617188 33.960938 L 40.3125 34.40625 L 40.054688 34.710938 L 39.890625 34.898438 L 39.632812 35.179688 L 39.210938 35.601562 L 39.164062 35.578125 L 39.632812 35.109375 L 39.796875 34.921875 L 40.03125 34.664062 L 40.265625 34.359375 L 40.5 34.007812 L 40.734375 33.632812 L 40.921875 33.164062 L 41.015625 32.90625 L 41.085938 32.460938 L 41.085938 32.039062 L 41.015625 31.6875 L 40.875 31.3125 L 40.78125 31.148438 Z M 40.78125 31.101562 "/>
<path style=" stroke:none;fill-rule:nonzero;fill:rgb(43.529412%,73.72549%,92.54902%);fill-opacity:1;" d="M 25.078125 7.992188 L 25.171875 8.039062 L 25.171875 8.085938 L 25.21875 8.085938 L 25.21875 8.132812 L 25.3125 8.179688 L 25.382812 8.25 L 25.546875 8.34375 L 25.570312 8.414062 L 25.664062 8.460938 L 25.734375 8.554688 L 25.734375 8.601562 L 25.804688 8.578125 L 25.757812 8.695312 L 25.664062 8.859375 L 25.570312 8.789062 L 25.453125 8.578125 L 25.148438 8.132812 L 25.078125 8.039062 Z M 25.078125 7.992188 "/>
<path style=" stroke:none;fill-rule:nonzero;fill:rgb(81.960784%,82.352941%,81.960784%);fill-opacity:1;" d="M 38.554688 36.117188 L 38.601562 36.140625 L 38.367188 36.375 L 38.179688 36.539062 L 38.085938 36.632812 L 38.039062 36.609375 L 38.34375 36.304688 L 38.53125 36.140625 Z M 38.554688 36.117188 "/>
</g>
</svg>
